<svg xmlns="http://www.w3.org/2000/svg" width="28.62" height="28.543" viewBox="0 0 28.62 28.543"><g transform="translate(0 -0.694)"><g transform="translate(10.168 20.819)"><path d="M182.735,360.714a.836.836,0,0,0-.836.836v3.4a.836.836,0,1,0,1.672,0v-3.4A.836.836,0,0,0,182.735,360.714Z" transform="translate(-181.899 -360.714)" fill="#8f8f8f"/></g><g transform="translate(13.513 20.819)"><path d="M242.572,360.714a.836.836,0,0,0-.836.836v3.4a.836.836,0,1,0,1.672,0v-3.4A.836.836,0,0,0,242.572,360.714Z" transform="translate(-241.736 -360.714)" fill="#8f8f8f"/></g><g transform="translate(16.858 20.819)"><path d="M302.409,360.714a.836.836,0,0,0-.836.836v3.4a.836.836,0,0,0,1.672,0v-3.4A.836.836,0,0,0,302.409,360.714Z" transform="translate(-301.573 -360.714)" fill="#8f8f8f"/></g><g transform="translate(20.258 20.819)"><path d="M363.244,360.714a.836.836,0,0,0-.836.836v3.4a.836.836,0,1,0,1.672,0v-3.4A.836.836,0,0,0,363.244,360.714Z" transform="translate(-362.408 -360.714)" fill="#8f8f8f"/></g><g transform="translate(0 0.694)"><g transform="translate(0 0)"><path d="M28.621,4.931a.836.836,0,0,0-.836-.836,7.555,7.555,0,0,0-6.46,3.663,5.829,5.829,0,0,0-1.9-.318,6.07,6.07,0,0,0-2.564.574V3.2a2.509,2.509,0,1,0-5.017,0v7.541L10.521,8.57A3.789,3.789,0,0,0,7.762,6.756L6.616,3.912A2.507,2.507,0,0,0,2.748,2.87L.969,4.255A2.508,2.508,0,0,0,1.029,8.26L3.5,10.069a3.789,3.789,0,0,0,1.052,3.088.83.83,0,0,0,.092.094l.878.878H2.586a2.509,2.509,0,0,0-.727,4.909l1.342,8.1a2.5,2.5,0,0,0,2.474,2.1H23.023a2.5,2.5,0,0,0,2.475-2.1l1.342-8.1a2.508,2.508,0,0,0,.345-4.669,7.53,7.53,0,0,0,1.437-4.422ZM16.858,9.95a4.342,4.342,0,0,1,2.564-.838,4.182,4.182,0,0,1,4.1,5.017H16.858ZM13.513,3.2h0a.836.836,0,1,1,1.672,0V14.129H13.513ZM4.1,8.433,2.016,6.91A.836.836,0,0,1,2,5.575l.23-.179L4.338,8.11A3.8,3.8,0,0,0,4.1,8.433ZM3.546,4.369l.23-.179a.836.836,0,0,1,1.289.347L6.03,6.932a3.777,3.777,0,0,0-.372.151Zm1.816,7.063a2.116,2.116,0,0,1,3.724-2l0,.006,2.751,4.53v.163H7.893L6.46,12.7l1.562-1.216a.836.836,0,1,0-1.027-1.32ZM23.848,26.866a.834.834,0,0,1-.825.7H5.676a.833.833,0,0,1-.825-.7l-1.278-7.72H25.126Zm2.264-9.392H2.586a.836.836,0,1,1,0-1.672H26.112a.836.836,0,0,1,0,1.672ZM25.219,14.1a5.846,5.846,0,0,0-2.4-5.575,5.884,5.884,0,0,1,4.133-2.7V9.948h0A5.858,5.858,0,0,1,25.219,14.1Z" transform="translate(0 -0.694)" fill="#8f8f8f"/></g></g><g transform="translate(18.586 10.785)"><circle cx="0.836" cy="0.836" r="0.836" fill="#8f8f8f"/></g><g transform="translate(6.767 20.819)"><path d="M121.9,360.714a.836.836,0,0,0-.836.836v3.4a.836.836,0,1,0,1.672,0v-3.4A.836.836,0,0,0,121.9,360.714Z" transform="translate(-121.065 -360.714)" fill="#8f8f8f"/></g></g></svg>