<svg xmlns="http://www.w3.org/2000/svg" width="26.417" height="22.506" viewBox="0 0 26.417 22.506"><g transform="translate(0)"><g transform="translate(0 0)"><path d="M24.168,50.935l-3.013-7.212A1.645,1.645,0,0,0,19.637,42.7H6.78a1.65,1.65,0,0,0-1.517,1.023L2.25,50.935A3.95,3.95,0,0,0,0,54.518v4.5a1.675,1.675,0,0,0,1.651,1.688H2.2v2.812a1.675,1.675,0,0,0,1.651,1.688h2.2a1.675,1.675,0,0,0,1.651-1.688V60.706H18.714v2.812a1.675,1.675,0,0,0,1.651,1.688h2.2a1.675,1.675,0,0,0,1.651-1.688V60.706h.547a1.675,1.675,0,0,0,1.651-1.688v-4.5A3.95,3.95,0,0,0,24.168,50.935ZM6.274,44.167a.553.553,0,0,1,.506-.343H19.637a.548.548,0,0,1,.506.338l2.683,6.421c-.088-.005-.175-.011-.258-.011H3.854c-.088,0-.175.005-.258.011ZM6.6,63.518a.559.559,0,0,1-.552.564h-2.2a.559.559,0,0,1-.552-.564V60.706H6.6Zm15.959.564h-2.2a.559.559,0,0,1-.552-.564V60.706h3.3v2.812h.005A.559.559,0,0,1,22.563,64.083Zm2.2-4.5H1.651a.559.559,0,0,1-.552-.565v-4.5a2.784,2.784,0,0,1,2.75-2.812H22.563a2.784,2.784,0,0,1,2.75,2.812v4.5h.005A.559.559,0,0,1,24.766,59.582Z" transform="translate(0 -42.7)" fill="#8f8f8f"/></g><g transform="translate(2.203 10.204)"><path d="M45.45,234.7a2.75,2.75,0,1,0,2.75,2.75A2.752,2.752,0,0,0,45.45,234.7Zm0,4.4A1.651,1.651,0,1,1,47.1,237.45,1.656,1.656,0,0,1,45.45,239.1Z" transform="translate(-42.7 -234.7)" fill="#8f8f8f"/></g><g transform="translate(18.714 10.204)"><path d="M365.45,234.7a2.75,2.75,0,1,0,2.75,2.75A2.752,2.752,0,0,0,365.45,234.7Zm0,4.4a1.651,1.651,0,1,1,1.651-1.651A1.656,1.656,0,0,1,365.45,239.1Z" transform="translate(-362.7 -234.7)" fill="#8f8f8f"/></g><g transform="translate(8.802 13.522)"><path d="M178.861,298.7h-7.708a.552.552,0,0,0,0,1.1h7.7a.552.552,0,0,0,.005-1.1Z" transform="translate(-170.6 -298.7)" fill="#8f8f8f"/></g><g transform="translate(8.802 11.266)"><path d="M178.861,256h-7.708a.552.552,0,0,0,0,1.1h7.7a.552.552,0,0,0,.005-1.1Z" transform="translate(-170.6 -256)" fill="#8f8f8f"/></g></g></svg>