<svg xmlns="http://www.w3.org/2000/svg" width="28" height="28" viewBox="0 0 28 28"><path d="M0,0H28V28H0Z" fill="none"/><path d="M13.3,2A8.248,8.248,0,0,0,5,10.2c0,6.153,8.3,15.237,8.3,15.237s8.3-9.084,8.3-15.237A8.248,8.248,0,0,0,13.3,2ZM6.389,10.2c0-3.235,3.639-6.851,6.913-6.851S20.171,6.97,20.171,10.2c0,3.376-4.355,9.805-6.869,12.958C10.835,20.033,6.389,13.545,6.389,10.2Z" transform="translate(0.698 0.279)"/><circle cx="2.849" cy="2.849" r="2.849" transform="translate(11.151 7.63)" fill="none" stroke="#000" stroke-width="1"/></svg>