<svg xmlns="http://www.w3.org/2000/svg" width="132.525" height="33.385" viewBox="0 0 132.525 33.385"><g transform="translate(-44.562 -307.171)"><g transform="translate(44.562 307.171)"><path d="M85.6,312.606a4.24,4.24,0,0,1,1.214,1.062,1.14,1.14,0,0,1,.057,1.353.346.346,0,0,0-.025.076,1.059,1.059,0,0,1,1.031.683,1.243,1.243,0,0,1-.234,1.239c.436.3.873.575,1.284.892.348.266.721.493,1.043.784a19.013,19.013,0,0,1,2.751,2.953,18.5,18.5,0,0,1,1.227,2.036,4.106,4.106,0,0,1,.322.721,15.244,15.244,0,0,1,.639,2.485,19.117,19.117,0,0,1,.076,2.947,11.915,11.915,0,0,1-.31,2.409,13.366,13.366,0,0,1-.942,2.725,8.816,8.816,0,0,1-.424.847,15.094,15.094,0,0,1-1.22,1.808c-.228.278-.455.55-.683.822-.373.449-.816.828-1.22,1.246a7.847,7.847,0,0,1-.923.8,21.748,21.748,0,0,1-3.029,1.992c-.493.266-1,.5-1.5.746-.556.278-1.138.487-1.714.715-.462.183-.948.316-1.423.474-.923.316-1.878.525-2.826.752-.506.12-1.024.19-1.536.285-.765.145-1.549.2-2.314.316-.613.095-1.227.089-1.84.139-1.265.095-2.536.038-3.8.051-.481.006-.948-.089-1.423-.089-.771-.006-1.53-.158-2.3-.234-.8-.082-1.574-.259-2.365-.379-.651-.1-1.277-.3-1.922-.443-.613-.133-1.208-.379-1.815-.55a16.966,16.966,0,0,1-2.068-.784c-.809-.348-1.593-.759-2.371-1.17-.449-.234-.841-.537-1.271-.8a18.406,18.406,0,0,1-3.535-3.022,15.376,15.376,0,0,1-1.233-1.562,4.9,4.9,0,0,1-.506-.714c-.133-.3-.322-.569-.462-.866-.19-.43-.379-.86-.588-1.284a5.587,5.587,0,0,1-.259-.8,13.1,13.1,0,0,1-.386-1.543,15.1,15.1,0,0,1-.221-3.111c.006-.639.038-1.277.107-1.91a9.961,9.961,0,0,1,.253-1.107,9.683,9.683,0,0,1,.822-2.143c.215-.43.474-.841.727-1.252a12.629,12.629,0,0,1,1.037-1.41,18.573,18.573,0,0,1,1.29-1.353,20.1,20.1,0,0,1,1.96-1.625c.221-.164.436-.335.651-.506.019-.019.038-.051.063-.051.3-.032.19-.139.057-.266a1.177,1.177,0,0,1,.171-1.714,1.779,1.779,0,0,1,.639-.183,3.479,3.479,0,0,1-.215-.436,1.212,1.212,0,0,1,.329-1.107,4.488,4.488,0,0,1,1.125-.942h1.461c.038.076-.038.089-.07.114a9.87,9.87,0,0,1-1.056.7,3.648,3.648,0,0,0-.8.664.372.372,0,0,0-.032.544,4.425,4.425,0,0,0,1.265,1.277.456.456,0,0,0,.392.076c.234-.057.474-.108.708-.164.386-.095.386-.1.221-.468-.133-.291-.291-.348-.582-.2-.126.063-.247.139-.424.24.171-.348-.032-.424-.259-.487-.032-.006-.082-.013-.076-.07a1.593,1.593,0,0,1,.291-.038c.183.006.209-.082.215-.24.006-.253.051-.506.076-.784a.711.711,0,0,1,.145.367,1.006,1.006,0,0,0,.278.5c.089.1.145.107.24.006a5.155,5.155,0,0,1,.607-.506c.038-.025.07-.076.12-.025a.1.1,0,0,1,.006.133l-.082.12a.842.842,0,0,0,.082,1.265,12.62,12.62,0,0,0,1.069,1.107c.221.209.436.417.67.639a.781.781,0,0,1-.8,0,2.056,2.056,0,0,1-.474-.373,6.452,6.452,0,0,0-.582-.594.507.507,0,0,0-.487-.107,3.443,3.443,0,0,0-.594.2,1,1,0,0,1-1.037-.082,3.445,3.445,0,0,0-1.714-.443c-.095,0-.209-.013-.259.095a.354.354,0,0,0,.044.335.486.486,0,0,0,.209.164,1.77,1.77,0,0,0,.392.126,13.089,13.089,0,0,1,1.9.411,9.463,9.463,0,0,1,1.227.443,3.557,3.557,0,0,0,2.384.443.91.91,0,0,1,1.062.537,2.584,2.584,0,0,1,.145.3c.177.455.354.9.512,1.359a10.727,10.727,0,0,1,.7,4.18c-.032.544-.057,1.081-.057,1.625a23.772,23.772,0,0,0,.158,2.928,6.676,6.676,0,0,0,.481,2.011c.089.19.152.392.234.62-.07-.032-.1-.044-.133-.057a36.129,36.129,0,0,0-7.221-2.536,26.361,26.361,0,0,0-5.305-.752,17.416,17.416,0,0,0-3.035.158c-.177.025-.259.076-.266.284a7.157,7.157,0,0,0,.177,1.8,11.434,11.434,0,0,0,2.466,4.824c.038.051.07.133.152.032a1.64,1.64,0,0,1,1.682-.5c.569.1,1.138.253,1.707.348a46.418,46.418,0,0,0,5.292.6,40.2,40.2,0,0,0,4.186-.038c1.081-.057,2.162-.139,3.237-.228a13.169,13.169,0,0,0,1.859-.209,1.843,1.843,0,0,0,1.644-2.055,7.067,7.067,0,0,0-.487-2.162c-.417-1.182-1.005-2.3-1.48-3.459-1.075-2.624-2.207-5.223-3.421-7.784a15.127,15.127,0,0,0-2.624-4c-.967-1.024-1.954-2.03-2.972-3.01-.063-.057-.171-.095-.158-.209h1.208c.36.411.771.771,1.144,1.17.07.07.139.038.209.019a34.355,34.355,0,0,1,6.5-1.119,1.14,1.14,0,0,0,.481-.07h4.711c.019.038.051.038.089.038.607.038,1.214.095,1.821.164a30.8,30.8,0,0,1,4.609.854.563.563,0,0,0,.7-.19c.253-.31.582-.55.828-.866H82.3c.044.095-.057.114-.095.152-.74.721-1.461,1.467-2.2,2.188a16.464,16.464,0,0,0-3.471,4.894c-1.119,2.409-2.213,4.824-3.2,7.29-.518,1.284-1.17,2.517-1.638,3.819a6.681,6.681,0,0,0-.525,2.529,1.692,1.692,0,0,0,1.088,1.625,5.14,5.14,0,0,0,1.606.316c1.568.133,3.143.259,4.717.329a36.893,36.893,0,0,0,6.2-.221c1.448-.177,2.883-.4,4.306-.714a1.555,1.555,0,0,1,1.865.733c.07.126.114.038.158-.013a10.889,10.889,0,0,0,2.687-5.286c.095-.582.2-1.163.234-1.751.013-.145-.051-.19-.183-.209a17.768,17.768,0,0,0-2.238-.164,24.527,24.527,0,0,0-4.407.4,40.122,40.122,0,0,0-8.391,2.491c-.386.158-.765.335-1.176.518.032-.082.044-.126.063-.171a7.823,7.823,0,0,0,.651-2.415,22.971,22.971,0,0,0,.126-3.844,11.505,11.505,0,0,1,.291-3.693,19.583,19.583,0,0,1,.942-2.706,1,1,0,0,1,1.309-.689,2.335,2.335,0,0,0,.727.032,5.056,5.056,0,0,0,1.568-.531,11.1,11.1,0,0,1,2.055-.651c.379-.114.8-.1,1.182-.215a.832.832,0,0,0,.386-.2.351.351,0,0,0,.1-.36c-.038-.139-.177-.126-.278-.126A2.767,2.767,0,0,0,86.3,316a3.717,3.717,0,0,0-1.4.487.777.777,0,0,1-.752.051c-.171-.076-.354-.114-.531-.19a.678.678,0,0,0-.841.209c-.082.095-.171.183-.253.278a2.621,2.621,0,0,1-.537.487.8.8,0,0,1-.892.051c.24-.234.474-.449.7-.67a11.091,11.091,0,0,0,1.2-1.3.686.686,0,0,0,.057-.8c-.07-.12-.145-.24-.221-.354-.038-.057-.044-.1.006-.145s.089.013.12.038c.158.12.322.24.474.373.291.247.322.247.537-.082a1.392,1.392,0,0,0,.126-.354.665.665,0,0,1,.126-.3,2.343,2.343,0,0,1,.063.493c.057.493.057.493.575.569-.145.063-.266.114-.379.171-.177.082.044.24-.07.348-.057-.038-.114-.076-.171-.107-.487-.3-.721-.2-.847.367-.025.108.006.133.095.152.3.07.607.139.911.221a.476.476,0,0,0,.411-.076A4.388,4.388,0,0,0,85.9,314.9c.386-.519.367-.632-.126-1.062a10.536,10.536,0,0,0-1.29-.879c-.139-.095-.3-.171-.373-.341C84.635,312.606,85.122,312.606,85.6,312.606Zm-15,22.01c-.095.152-.171.285-.259.4a3.129,3.129,0,0,1-2.238,1.17c-1.062.139-2.131.2-3.193.278-1.265.095-2.536.164-3.806.183a33.84,33.84,0,0,1-4.8-.278,35.214,35.214,0,0,1-3.718-.582,4,4,0,0,0-1.024-.177.658.658,0,0,0-.556.272.187.187,0,0,0,.025.285,16.952,16.952,0,0,0,1.745,1.549,23.411,23.411,0,0,0,6.032,3.326,31.359,31.359,0,0,0,5.811,1.587,35.585,35.585,0,0,0,3.655.443,37.012,37.012,0,0,0,4.1.051,35.828,35.828,0,0,0,3.857-.367,30.765,30.765,0,0,0,3.927-.841,26.3,26.3,0,0,0,7.442-3.313,18.631,18.631,0,0,0,2.713-2.169c.057-.057.126-.1.082-.209a.815.815,0,0,0-1.037-.588c-.481.095-.961.215-1.448.31-1.012.2-2.03.31-3.048.436a35.412,35.412,0,0,1-5.552.247c-1.96-.063-3.908-.215-5.861-.392A3.23,3.23,0,0,1,70.6,334.617Zm.006-2.953c.044-.126.076-.2.1-.278a14.2,14.2,0,0,1,.582-1.6c.506-1.227,1.088-2.415,1.581-3.642.8-2.011,1.714-3.977,2.605-5.944a17.48,17.48,0,0,1,3.674-5.533c.139-.133.07-.171-.07-.2-.9-.209-1.8-.392-2.713-.531a36.256,36.256,0,0,0-5.849-.424,35.007,35.007,0,0,0-8.264,1.024c-.07.019-.171,0-.2.089s.07.126.126.177a14.757,14.757,0,0,1,2.8,3.882c.892,1.764,1.688,3.573,2.479,5.387.493,1.138.948,2.3,1.442,3.433.411.955.873,1.891,1.239,2.864C70.3,330.772,70.44,331.19,70.6,331.664Zm8.53-1.859c-.025.158.051.139.158.1.177-.076.36-.145.544-.215a40.67,40.67,0,0,1,7-1.973,25.309,25.309,0,0,1,3.908-.436,18.352,18.352,0,0,1,3.117.133c.082.013.183.057.164-.114a10.283,10.283,0,0,0-.752-2.845,12.914,12.914,0,0,0-2.46-3.712,18.491,18.491,0,0,0-3.971-3.174.269.269,0,0,0-.215-.051c-.518.133-1.05.145-1.568.316a13.961,13.961,0,0,0-1.657.594,3.852,3.852,0,0,1-2.5.417.277.277,0,0,0-.367.2c-.247.62-.493,1.239-.689,1.872a9.545,9.545,0,0,0-.493,3.5,26.369,26.369,0,0,1-.032,3.806Q79.257,329.027,79.134,329.8Zm-17.256-5.792a10.061,10.061,0,0,0-.436-2.82,18.446,18.446,0,0,0-.809-2.207.209.209,0,0,0-.272-.145,3.292,3.292,0,0,1-1.606-.063,14.324,14.324,0,0,1-1.448-.569,9.5,9.5,0,0,0-2.327-.613.64.64,0,0,0-.43.095,20.073,20.073,0,0,0-2.087,1.48,14.949,14.949,0,0,0-3.231,3.535,10.577,10.577,0,0,0-1.669,4.59c-.025.24-.025.253.215.215a17.911,17.911,0,0,1,4.072-.12,27.961,27.961,0,0,1,4.515.715,38.1,38.1,0,0,1,5.387,1.714c.089.038.2.139.285.063.07-.057.019-.183,0-.278a17.787,17.787,0,0,1-.228-2.592A24.965,24.965,0,0,1,61.878,324.013Z" transform="translate(-46.562 -312.587)" fill="#28337e"/><path d="M449.3,312.419c.07.171.234.247.373.341a10.541,10.541,0,0,1,1.29.879c.487.43.506.544.126,1.062A4.5,4.5,0,0,1,450,315.72a.476.476,0,0,1-.411.076c-.3-.082-.607-.145-.911-.221-.089-.019-.12-.044-.095-.152.133-.563.36-.67.847-.367.057.038.114.076.171.108.12-.1-.108-.266.07-.348.114-.051.234-.1.379-.171-.519-.07-.519-.07-.575-.569a2.342,2.342,0,0,0-.063-.493.891.891,0,0,0-.126.3,1.082,1.082,0,0,1-.126.354c-.215.329-.253.335-.537.082-.152-.133-.316-.253-.474-.373-.032-.025-.07-.082-.12-.038s-.038.095-.006.145c.076.114.152.234.221.354a.685.685,0,0,1-.057.8,9.731,9.731,0,0,1-1.2,1.3c-.228.221-.462.436-.7.67a.8.8,0,0,0,.892-.051,3.018,3.018,0,0,0,.537-.487c.082-.095.171-.183.253-.278a.686.686,0,0,1,.841-.209c.171.07.36.108.531.19a.746.746,0,0,0,.752-.051,3.892,3.892,0,0,1,1.859-.525c.1,0,.24-.013.278.126a.347.347,0,0,1-.1.36.9.9,0,0,1-.386.2c-.386.114-.8.1-1.182.215a10.782,10.782,0,0,0-2.055.651,5.054,5.054,0,0,1-1.568.531,2.158,2.158,0,0,1-.727-.032,1,1,0,0,0-1.309.689,19.305,19.305,0,0,0-.942,2.706,11.522,11.522,0,0,0-.291,3.693,22.973,22.973,0,0,1-.126,3.844,7.774,7.774,0,0,1-.651,2.415c-.019.044-.032.089-.063.171.411-.183.79-.36,1.176-.518a39.9,39.9,0,0,1,8.391-2.491,24.577,24.577,0,0,1,4.407-.4,16.509,16.509,0,0,1,2.238.164c.133.019.19.057.183.209-.038.588-.139,1.17-.234,1.751a10.809,10.809,0,0,1-2.687,5.286c-.044.057-.089.145-.158.013a1.552,1.552,0,0,0-1.865-.733c-1.423.316-2.858.538-4.306.715a36.893,36.893,0,0,1-6.2.221c-1.574-.076-3.142-.2-4.717-.329a4.967,4.967,0,0,1-1.606-.316,1.692,1.692,0,0,1-1.088-1.625,6.681,6.681,0,0,1,.525-2.529c.474-1.3,1.126-2.535,1.638-3.819.986-2.466,2.087-4.881,3.2-7.29a16.464,16.464,0,0,1,3.471-4.894c.74-.721,1.454-1.473,2.2-2.188.038-.038.139-.057.095-.152C448.1,312.419,448.7,312.419,449.3,312.419Z" transform="translate(-411.712 -312.4)" fill="#fefefe"/><path d="M73.936,312.7c-.013.114.095.152.158.209,1.018.98,2,1.985,2.972,3.01a15.128,15.128,0,0,1,2.624,4c1.214,2.561,2.346,5.16,3.421,7.784.474,1.157,1.062,2.276,1.48,3.459a7.258,7.258,0,0,1,.487,2.162,1.843,1.843,0,0,1-1.644,2.055,14.17,14.17,0,0,1-1.859.209c-1.081.089-2.156.171-3.237.228a40.187,40.187,0,0,1-4.186.038,46.418,46.418,0,0,1-5.292-.6c-.575-.095-1.138-.247-1.707-.348a1.64,1.64,0,0,0-1.682.5c-.082.1-.114.019-.152-.032a11.544,11.544,0,0,1-2.466-4.824,7.464,7.464,0,0,1-.177-1.8c.006-.215.082-.259.266-.285a17.387,17.387,0,0,1,3.035-.158,26.824,26.824,0,0,1,5.305.752,36.131,36.131,0,0,1,7.221,2.536c.032.013.063.025.133.057-.089-.228-.145-.43-.234-.62a6.721,6.721,0,0,1-.481-2.011,23.906,23.906,0,0,1-.158-2.928c0-.544.025-1.081.057-1.625a10.727,10.727,0,0,0-.7-4.18c-.158-.455-.341-.911-.512-1.359a2.583,2.583,0,0,0-.145-.3.91.91,0,0,0-1.062-.537,3.557,3.557,0,0,1-2.384-.443,9.459,9.459,0,0,0-1.227-.443,14.179,14.179,0,0,0-1.9-.411,1.668,1.668,0,0,1-.392-.126.485.485,0,0,1-.209-.164.338.338,0,0,1-.044-.335c.051-.107.164-.1.259-.095a3.38,3.38,0,0,1,1.714.443.992.992,0,0,0,1.037.082,4.366,4.366,0,0,1,.594-.2.507.507,0,0,1,.487.107,6.454,6.454,0,0,1,.582.594,2.093,2.093,0,0,0,.474.373.782.782,0,0,0,.8,0c-.228-.221-.449-.43-.67-.639a13.55,13.55,0,0,1-1.069-1.107.847.847,0,0,1-.082-1.265,1.35,1.35,0,0,1,.082-.12.1.1,0,0,0-.006-.133c-.051-.051-.089,0-.12.025a4.226,4.226,0,0,0-.607.506c-.095.1-.152.095-.24-.006a1.006,1.006,0,0,1-.278-.5.711.711,0,0,0-.145-.367c-.032.278-.07.531-.076.784-.006.158-.032.247-.215.24a1.606,1.606,0,0,0-.291.038c-.006.057.044.057.076.07.228.07.43.145.259.487.177-.1.3-.177.424-.24.291-.145.449-.089.582.2.171.373.164.373-.221.468-.234.057-.474.107-.708.164a.456.456,0,0,1-.392-.076,4.2,4.2,0,0,1-1.265-1.277.377.377,0,0,1,.032-.544,3.648,3.648,0,0,1,.8-.664,11.742,11.742,0,0,0,1.056-.7c.032-.032.107-.038.07-.114C72.741,312.7,73.335,312.7,73.936,312.7Z" transform="translate(-61.654 -312.681)" fill="#fefefe"/><path d="M135.406,660.8a3.206,3.206,0,0,0,2.839,1.619c1.947.177,3.9.335,5.861.392a36.2,36.2,0,0,0,5.552-.247c1.018-.127,2.042-.24,3.048-.436.481-.095.961-.215,1.448-.31a.82.82,0,0,1,1.037.588c.038.107-.025.152-.082.209a18.308,18.308,0,0,1-2.713,2.169,26.3,26.3,0,0,1-7.442,3.313,30.76,30.76,0,0,1-3.927.841,35.73,35.73,0,0,1-3.857.367,40.425,40.425,0,0,1-4.1-.051,35.577,35.577,0,0,1-3.655-.443,30.743,30.743,0,0,1-5.811-1.587,23.518,23.518,0,0,1-6.032-3.326,17.589,17.589,0,0,1-1.745-1.549.187.187,0,0,1-.025-.285.657.657,0,0,1,.556-.272,3.78,3.78,0,0,1,1.024.177,36.956,36.956,0,0,0,3.718.582,33.818,33.818,0,0,0,4.8.278c1.271-.019,2.542-.088,3.806-.183,1.069-.082,2.137-.133,3.193-.278a3.117,3.117,0,0,0,2.238-1.17A2.436,2.436,0,0,0,135.406,660.8Z" transform="translate(-111.37 -638.771)" fill="#f7ce02"/><path d="M300.112,345.047c-.164-.468-.3-.892-.462-1.3-.367-.974-.828-1.91-1.239-2.864-.493-1.138-.948-2.3-1.442-3.433-.784-1.815-1.587-3.623-2.479-5.387a14.9,14.9,0,0,0-2.8-3.882c-.051-.051-.145-.095-.126-.177s.126-.07.2-.088a35,35,0,0,1,8.264-1.024,35.505,35.505,0,0,1,5.849.424q1.366.218,2.713.531c.145.032.209.07.07.2a17.409,17.409,0,0,0-3.674,5.533c-.892,1.973-1.8,3.933-2.605,5.944-.493,1.233-1.075,2.422-1.581,3.642a14.655,14.655,0,0,0-.582,1.6C300.188,344.845,300.156,344.921,300.112,345.047Z" transform="translate(-276.07 -325.97)" fill="#f7ce02"/><path d="M561.627,402.685c.082-.518.145-1.043.183-1.568a26.37,26.37,0,0,0,.032-3.806,9.546,9.546,0,0,1,.493-3.5c.2-.639.443-1.258.689-1.872a.281.281,0,0,1,.367-.2,3.845,3.845,0,0,0,2.5-.417,14.381,14.381,0,0,1,1.657-.594c.512-.164,1.05-.183,1.568-.316a.264.264,0,0,1,.215.051,18.333,18.333,0,0,1,3.971,3.174,12.828,12.828,0,0,1,2.46,3.712,10.28,10.28,0,0,1,.752,2.845c.019.171-.082.126-.164.114a17.721,17.721,0,0,0-3.117-.133,25.312,25.312,0,0,0-3.908.436,40.68,40.68,0,0,0-7,1.973c-.183.07-.36.139-.544.215C561.678,402.83,561.6,402.843,561.627,402.685Z" transform="translate(-529.055 -385.467)" fill="#f7ce02"/><path d="M76.648,398.033a23.766,23.766,0,0,0-.063,3,18.8,18.8,0,0,0,.228,2.592c.019.095.07.221,0,.278s-.19-.032-.285-.063a37.307,37.307,0,0,0-5.387-1.714,27.968,27.968,0,0,0-4.515-.714,18.283,18.283,0,0,0-4.072.12c-.24.038-.24.032-.215-.215a10.576,10.576,0,0,1,1.669-4.591,14.57,14.57,0,0,1,3.231-3.535,20.073,20.073,0,0,1,2.087-1.48.64.64,0,0,1,.43-.095,9.5,9.5,0,0,1,2.327.613,14.33,14.33,0,0,0,1.448.569,3.292,3.292,0,0,0,1.606.063.2.2,0,0,1,.272.145,20.923,20.923,0,0,1,.809,2.207A10.246,10.246,0,0,1,76.648,398.033Z" transform="translate(-61.331 -386.607)" fill="#f7ce02"/></g><g transform="translate(100.637 307.977)"><path d="M952.517,376.713c0,1.082-.005,2.169.005,3.25,0,.187-.053.24-.24.234-.677-.011-1.348-.011-2.025,0-.2.005-.25-.048-.25-.25.011-2.009.005-4.012.005-6.021a1.911,1.911,0,0,0-.464-1.38,1.834,1.834,0,0,0-2.014-.421,1.738,1.738,0,0,0-1.21,1.625c-.021.623-.011,1.242-.011,1.865,0,1.439-.005,2.877.005,4.316,0,.208-.048.272-.261.266-.655-.016-1.316-.016-1.972,0-.218.005-.282-.053-.282-.277.011-1.956.005-3.906.005-5.862a2.838,2.838,0,0,0-.155-.991,1.7,1.7,0,0,0-1.966-1.039,1.809,1.809,0,0,0-1.572,1.934c0,1.972-.005,3.943.005,5.915,0,.256-.053.33-.32.325-.655-.021-1.316-.011-1.972-.005-.171,0-.229-.043-.229-.218.005-2.052-.037-4.1.016-6.155a4.121,4.121,0,0,1,2.563-4.012,4.266,4.266,0,0,1,3.9.187,2.978,2.978,0,0,1,.858.709c.123.144.187.149.314.005a4.347,4.347,0,0,1,5.846-.261,4.431,4.431,0,0,1,1.412,3.357C952.528,374.773,952.517,375.743,952.517,376.713Z" transform="translate(-937.57 -366.209)" fill="#1f2f7a"/><path d="M1975.026,313.785c0-.959.027-1.838-.005-2.712a1.838,1.838,0,0,1,1.732-2.036,4.36,4.36,0,0,1,.874-.059c.117,0,.165.043.155.155-.005.064,0,.123,0,.186v9.426a4.263,4.263,0,0,1-3.847,4.348,8.012,8.012,0,0,1-2.957-.154,3.878,3.878,0,0,1-2.941-2.718,7.346,7.346,0,0,1,.416-5.76,4.008,4.008,0,0,1,4.7-2.073A3.2,3.2,0,0,1,1975.026,313.785Zm-4.551,4.178a4.865,4.865,0,0,0,.442,1.913,2.152,2.152,0,0,0,3.554.256,3.783,3.783,0,0,0,.618-2.11,4.328,4.328,0,0,0-.559-2.451,2.112,2.112,0,0,0-3.639.2A5.331,5.331,0,0,0,1970.475,317.962Z" transform="translate(-1912.729 -308.977)" fill="#1f2f7a"/><path d="M1244.394,376.93h-3.544c-.107,0-.24-.043-.219.16a2.328,2.328,0,0,0,1.226,2.046,3.05,3.05,0,0,0,2.552.053.866.866,0,0,0,.421-.314.677.677,0,0,1,.682-.282c.719.011,1.439.005,2.158.005.325,0,.336.005.2.314a4.356,4.356,0,0,1-2.147,2.227,6.037,6.037,0,0,1-6.427-.874,4.271,4.271,0,0,1-1.295-2.584,7.909,7.909,0,0,1,.192-3.634,4.718,4.718,0,0,1,4.5-3.314,5.859,5.859,0,0,1,2.968.57,4.641,4.641,0,0,1,2.419,3.586,14.04,14.04,0,0,1,.106,1.833c.005.186-.064.218-.229.218C1246.776,376.925,1245.588,376.93,1244.394,376.93Zm-1.391-1.8c.709,0,1.417-.005,2.131,0,.155,0,.224-.021.2-.2a2.112,2.112,0,0,0-.666-1.38,2.47,2.47,0,0,0-2.526-.442,2.189,2.189,0,0,0-1.4,1.8c-.048.2.026.24.213.234C1241.634,375.129,1242.321,375.134,1243,375.134Z" transform="translate(-1221.859 -367.439)" fill="#1f2f7a"/><path d="M1405.92,669.434h-3.357c-.384,0-.384,0-.341.373a2.153,2.153,0,0,0,1.327,1.908,3.109,3.109,0,0,0,2.286-.011,1.028,1.028,0,0,0,.5-.346.686.686,0,0,1,.655-.277c.746.016,1.492.011,2.238,0,.2,0,.229.048.155.224a4.232,4.232,0,0,1-2.728,2.51,5.815,5.815,0,0,1-5.643-.97,4.01,4.01,0,0,1-1.407-2.606,7.309,7.309,0,0,1,.325-4.055,4.457,4.457,0,0,1,3.576-2.808,5.85,5.85,0,0,1,3.171.272,4.485,4.485,0,0,1,2.851,3.57,10.882,10.882,0,0,1,.123,2.041c.005.2-.117.176-.24.176Zm-1.37-1.78c.693,0,1.385-.005,2.073,0,.16,0,.24-.021.208-.219a2.4,2.4,0,0,0-.41-1.082,2.449,2.449,0,0,0-2.568-.773,2.279,2.279,0,0,0-1.572,1.892c-.037.181.064.181.192.181Z" transform="translate(-1374.827 -644.393)" fill="#1f2f7a"/><path d="M2183.147,374.113a6.331,6.331,0,0,1-.98,3.613,4.254,4.254,0,0,1-2.648,1.87,7.016,7.016,0,0,1-3.5-.037,4.437,4.437,0,0,1-3.133-3.165,6.2,6.2,0,0,1,.959-5.963,4.027,4.027,0,0,1,2.212-1.439,6.825,6.825,0,0,1,3.421-.037,4.642,4.642,0,0,1,3.379,3.362A6.115,6.115,0,0,1,2183.147,374.113Zm-2.856.218a4.8,4.8,0,0,0-.314-1.865,2.331,2.331,0,0,0-4.226-.107,4.762,4.762,0,0,0,.021,3.9,2.081,2.081,0,0,0,2.025,1.252,2.141,2.141,0,0,0,2.073-1.183A4.382,4.382,0,0,0,2180.291,374.332Z" transform="translate(-2106.697 -365.57)" fill="#1f2f7a"/><path d="M1789.467,375.174c0,.7.032,1.4-.005,2.1a3.157,3.157,0,0,1-1.865,2.883,7.7,7.7,0,0,1-5.318.426,2.62,2.62,0,0,1-1.982-2.6,3.062,3.062,0,0,1,1.274-2.9,4.549,4.549,0,0,1,1.625-.629c.815-.181,1.652-.213,2.472-.368a2.923,2.923,0,0,0,.512-.144.824.824,0,0,0,.607-.789.891.891,0,0,0-.618-.927,3.255,3.255,0,0,0-1.94-.059,1.321,1.321,0,0,0-.922,1.1c-.037.16-.085.218-.256.218-.746-.011-1.492-.005-2.238-.005-.091,0-.2.032-.187-.133a3.4,3.4,0,0,1,1.918-3.005,5.6,5.6,0,0,1,2.222-.469,7.076,7.076,0,0,1,3.192.57,2.427,2.427,0,0,1,1.508,2.2C1789.531,373.49,1789.473,374.332,1789.467,375.174Zm-2.691,1.087h-.005v-.613c0-.123-.032-.16-.155-.1a4.525,4.525,0,0,1-1.4.4,5.484,5.484,0,0,0-1.508.4,1.286,1.286,0,0,0-.687,1.38,1.119,1.119,0,0,0,.959,1.055,2.267,2.267,0,0,0,2.749-1.9A6.182,6.182,0,0,0,1786.776,376.261Z" transform="translate(-1735.365 -366.631)" fill="#1f2f7a"/><path d="M1583.579,374.423c-.416,0-.837-.005-1.252,0-.138,0-.208-.016-.25-.181a1.674,1.674,0,0,0-1.529-1.471,2,2,0,0,0-2.185,1.071,4.84,4.84,0,0,0-.405,2.307,4.589,4.589,0,0,0,.277,1.668,2.109,2.109,0,0,0,2.963,1.082,1.717,1.717,0,0,0,.837-1.322c.043-.229.117-.3.352-.293.81.016,1.615.011,2.425,0,.186,0,.218.048.186.229a4.555,4.555,0,0,1-4.055,3.837,7.776,7.776,0,0,1-2.51-.128,4.034,4.034,0,0,1-3.032-2.675,7.044,7.044,0,0,1,.09-5.27,4.282,4.282,0,0,1,3.149-2.643,7.136,7.136,0,0,1,3.682.139,3.6,3.6,0,0,1,2.654,3.075c.1.581.107.581-.49.581C1584.181,374.423,1583.883,374.423,1583.579,374.423Z" transform="translate(-1540.95 -367.181)" fill="#1f2f7a"/><path d="M1098.431,675.572q.887-3.061,1.769-6.107a1.266,1.266,0,0,1,1.385-1.06c.576-.005,1.156.005,1.732-.005.187-.005.2.043.144.208q-1.774,4.98-3.528,9.959c-.053.16-.133.192-.288.192-.789-.005-1.583-.005-2.371,0a.229.229,0,0,1-.261-.187q-1.735-4.964-3.48-9.922c-.069-.2-.059-.256.17-.256q1.2.016,2.4,0a.278.278,0,0,1,.325.245q.951,3.373,1.913,6.746C1098.356,675.444,1098.351,675.514,1098.431,675.572Z" transform="translate(-1085.168 -649.242)" fill="#1f2f7a"/><path d="M939.763,608c0,2.222-.005,4.439.005,6.661,0,.245-.069.293-.293.288-.682-.016-1.369-.011-2.052,0-.171,0-.224-.037-.224-.219.005-3.954,0-7.9.005-11.856a1.689,1.689,0,0,1,1.2-1.615,4.031,4.031,0,0,1,1.087-.224c.2-.021.266.043.266.256C939.758,603.52,939.763,605.758,939.763,608Z" transform="translate(-937.2 -585.465)" fill="#1f2f7a"/><path d="M1454.411,378.255c.032-.853-.053-1.913.043-2.963a4.767,4.767,0,0,1,4.1-4.385,9.415,9.415,0,0,1,1.641-.117c.176,0,.266.027.261.245-.016.773-.011,1.545,0,2.318.005.2-.064.24-.245.213a3.731,3.731,0,0,0-1.375.053,1.931,1.931,0,0,0-1.609,1.748,6.032,6.032,0,0,0-.069.927q0,2.462.005,4.924c0,.2-.043.277-.261.272-.757-.016-1.508-.011-2.265,0-.181,0-.24-.043-.24-.234C1454.416,380.318,1454.411,379.385,1454.411,378.255Z" transform="translate(-1426.84 -367.496)" fill="#1f2f7a"/><path d="M1281.257,670.666c0-.853-.021-1.705.005-2.558a4.986,4.986,0,0,1,1.6-3.73,5.317,5.317,0,0,1,3.208-1.258,5.574,5.574,0,0,1,1.034-.037c.133.011.181.048.181.187-.005.81-.005,1.615,0,2.425,0,.133-.021.181-.176.16a4.539,4.539,0,0,0-1.14-.005,2.034,2.034,0,0,0-1.934,2.116c-.085,1.178-.032,2.361-.043,3.538-.005.655-.005,1.311,0,1.972,0,.149-.043.192-.192.192-.783-.005-1.561-.011-2.345,0-.181,0-.2-.064-.2-.213C1281.262,672.531,1281.257,671.6,1281.257,670.666Z" transform="translate(-1262.915 -644.202)" fill="#1f2f7a"/><path d="M1026.86,673.6c0,1.615-.005,3.234.005,4.849,0,.229-.064.277-.282.272-.757-.016-1.508-.011-2.265,0-.181,0-.219-.053-.219-.224q.008-4.932,0-9.858c0-.181.048-.24.234-.24.757.011,1.508.011,2.265,0,.219-.005.261.069.261.272Z" transform="translate(-1019.469 -649.243)" fill="#1f2f7a"/><path d="M1025.681,600.889c.384,0,.762.005,1.146,0,.139-.005.2.021.2.187-.011.778-.005,1.561,0,2.339,0,.144-.048.181-.187.176q-1.183-.008-2.366,0c-.16,0-.192-.059-.187-.2.005-.773.005-1.545,0-2.313,0-.16.053-.192.2-.187C1024.882,600.894,1025.282,600.889,1025.681,600.889Z" transform="translate(-1019.649 -585.333)" fill="#1f2f7a"/></g></g></svg>