<svg xmlns="http://www.w3.org/2000/svg" width="25.074" height="25.018" viewBox="0 0 25.074 25.018"><g transform="translate(0 -0.564)"><g transform="translate(0 0.564)"><g transform="translate(0 0)"><path d="M24.574,12.946,11.645.78A.8.8,0,0,0,11.1.564H.793A.793.793,0,0,0,0,1.357V11.665a.787.787,0,0,0,.249.576L13.916,25.149a1.6,1.6,0,0,0,1.091.433c.029,0,.056,0,.082,0a1.586,1.586,0,0,0,1.12-.552l8.483-9.894A1.584,1.584,0,0,0,24.574,12.946ZM15.005,24,1.586,11.322V2.15h9.2L23.486,14.1Z" transform="translate(0 -0.564)" fill="#8f8f8f"/></g></g><g transform="translate(3.172 3.736)"><path d="M66.379,64.564a2.379,2.379,0,1,0,2.379,2.379A2.382,2.382,0,0,0,66.379,64.564Zm0,3.172a.793.793,0,1,1,.793-.793A.794.794,0,0,1,66.379,67.736Z" transform="translate(-64 -64.564)" fill="#8f8f8f"/></g><g transform="translate(11.101 8.493)"><path d="M226.379,165.322a.793.793,0,0,1,0-1.586h1.586a.793.793,0,0,0,0-1.586h-.793v-.793a.793.793,0,0,0-1.586,0v.939a2.373,2.373,0,0,0,.793,4.612.793.793,0,0,1,0,1.586h-1.586a.793.793,0,0,0,0,1.586h.793v.793a.793.793,0,0,0,1.586,0v-.939a2.373,2.373,0,0,0-.793-4.612Z" transform="translate(-224 -160.564)" fill="#8f8f8f"/></g></g></svg>