<svg xmlns="http://www.w3.org/2000/svg" width="30" height="30" viewBox="0 0 30 30"><g transform="translate(0 0.354)"><rect width="30" height="30" transform="translate(0 -0.354)" fill="none"/><g transform="translate(3.716 3.716)"><path d="M3,12.908h9.908V3H3ZM5.477,5.477h4.954v4.954H5.477Z" transform="translate(-3 -3)" fill="#8f8f8f"/><path d="M3,22.908h9.908V13H3Zm2.477-7.431h4.954v4.954H5.477Z" transform="translate(-3 -0.615)" fill="#8f8f8f"/><path d="M13,3v9.908h9.908V3Zm7.431,7.431H15.477V5.477h4.954Z" transform="translate(-0.615 -3)" fill="#8f8f8f"/><rect width="3" height="3" transform="translate(19.284 19.931)" fill="#8f8f8f"/><rect width="3" height="3" transform="translate(12.284 11.931)" fill="#8f8f8f"/><rect width="2" height="3" transform="translate(15.284 14.931)" fill="#8f8f8f"/><rect width="3" height="2" transform="translate(12.284 17.931)" fill="#8f8f8f"/><rect width="2" height="3" transform="translate(15.284 19.931)" fill="#8f8f8f"/><rect width="2" height="2" transform="translate(17.284 17.931)" fill="#8f8f8f"/><rect width="2" height="3" transform="translate(17.284 11.931)" fill="#8f8f8f"/><rect width="3" height="3" transform="translate(19.284 14.931)" fill="#8f8f8f"/></g></g></svg>